ffmpeg version 3.4.8-0ubuntu0.2 Copyright (c) 2000-2020 the FFmpeg developers
  built with gcc 7 (Ubuntu 7.5.0-3ubuntu1~18.04)
  configuration: --prefix=/usr --extra-version=0ubuntu0.2 --toolchain=hardened --libdir=/usr/lib/x86_64-linux-gnu --incdir=/usr/include/x86_64-linux-gnu --enable-gpl --disable-stripping --enable-avresample --enable-avisynth --enable-gnutls --enable-ladspa --enable-libass --enable-libbluray --enable-libbs2b --enable-libcaca --enable-libcdio --enable-libflite --enable-libfontconfig --enable-libfreetype --enable-libfribidi --enable-libgme --enable-libgsm --enable-libmp3lame --enable-libmysofa --enable-libopenjpeg --enable-libopenmpt --enable-libopus --enable-libpulse --enable-librubberband --enable-librsvg --enable-libshine --enable-libsnappy --enable-libsoxr --enable-libspeex --enable-libssh --enable-libtheora --enable-libtwolame --enable-libvorbis --enable-libvpx --enable-libwavpack --enable-libwebp --enable-libx265 --enable-libxml2 --enable-libxvid --enable-libzmq --enable-libzvbi --enable-omx --enable-openal --enable-opengl --enable-sdl2 --enable-libdc1394 --enable-libdrm --enable-libiec61883 --enable-chromaprint --enable-frei0r --enable-libopencv --enable-libx264 --enable-shared
  libavutil      55. 78.100 / 55. 78.100
  libavcodec     57.107.100 / 57.107.100
  libavformat    57. 83.100 / 57. 83.100
  libavdevice    57. 10.100 / 57. 10.100
  libavfilter     6.107.100 /  6.107.100
  libavresample   3.  7.  0 /  3.  7.  0
  libswscale      4.  8.100 /  4.  8.100
  libswresample   2.  9.100 /  2.  9.100
  libpostproc    54.  7.100 / 54.  7.100
[rawvideo @ 0x56105a858a20] Estimating duration from bitrate, this may be inaccurate
Input #0, rawvideo, from '../../SVC-Encoder-20220109T061506Z-001/SVC-Encoder/Dataset/RollerCoaster/6f_2x2/tile_yuv/f2_t0_480x480.yuv':
  Duration: 00:00:10.00, start: 0.000000, bitrate: 82944 kb/s
    Stream #0:0: Video: rawvideo (I420 / 0x30323449), yuv420p, 480x480, 82944 kb/s, 30 tbr, 30 tbn, 30 tbc
Stream mapping:
  Stream #0:0 -> #0:0 (rawvideo (native) -> h264 (libx264))
Press [q] to stop, [?] for help
[libx264 @ 0x56105a865c60] using cpu capabilities: MMX2 SSE2Fast LZCNT SSSE3 SSE4.2 AVX
[libx264 @ 0x56105a865c60] profile High, level 3.0
Output #0, rawvideo, to 'RollerCoaster_f2_t0_480x480_x264_QP_28.h264':
  Metadata:
    encoder         : Lavf57.83.100
    Stream #0:0: Video: h264 (libx264), yuv420p, 480x480, q=-1--1, 30 fps, 30 tbn, 30 tbc
    Metadata:
      encoder         : Lavc57.107.100 libx264
    Side data:
      cpb: bitrate max/min/avg: 0/0/0 buffer size: 0 vbv_delay: -1
frame=  300 fps=0.0 q=34.0 LPSNR=Y:inf U:inf V:inf *:inf size=      12kB time=00:00:09.93 bitrate=  10.1kbits/s speed=28.3x    
video:12kB audio:0kB subtitle:0kB other streams:0kB global headers:0kB muxing overhead: 0.000000%
[libx264 @ 0x56105a865c60] frame I:2     Avg QP:26.37  size:  1097  PSNR Mean Y:52.85 U:53.20 V:54.66 Avg:53.16 Global:53.09
[libx264 @ 0x56105a865c60] frame P:76    Avg QP:29.50  size:    86  PSNR Mean Y:51.79 U:52.42 V:54.46 Avg:52.24 Global:52.21
[libx264 @ 0x56105a865c60] frame B:222   Avg QP:33.60  size:    17  PSNR Mean Y:51.83 U:52.43 V:54.44 Avg:52.27 Global:52.24
[libx264 @ 0x56105a865c60] consecutive B-frames:  1.3%  0.0%  0.0% 98.7%
[libx264 @ 0x56105a865c60] mb I  I16..4: 57.6% 42.4%  0.0%
[libx264 @ 0x56105a865c60] mb P  I16..4:  0.9%  2.3%  0.0%  P16..4:  1.3%  0.2%  0.0%  0.0%  0.0%    skip:95.2%
[libx264 @ 0x56105a865c60] mb B  I16..4:  0.0%  0.0%  0.0%  B16..8:  0.0%  0.0%  0.0%  direct: 0.0%  skip:100.0%  L0: 6.7% L1:93.3% BI: 0.0%
[libx264 @ 0x56105a865c60] 8x8 transform intra:58.3% inter:100.0%
[libx264 @ 0x56105a865c60] coded y,uvDC,uvAC intra: 1.3% 6.5% 0.0% inter: 0.0% 0.0% 0.0%
[libx264 @ 0x56105a865c60] i16 v,h,dc,p: 59% 17% 14% 10%
[libx264 @ 0x56105a865c60] i8 v,h,dc,ddl,ddr,vr,hd,vl,hu:  3%  2% 94%  0%  0%  0%  0%  0%  0%
[libx264 @ 0x56105a865c60] i8c dc,h,v,p: 91%  5%  4%  0%
[libx264 @ 0x56105a865c60] Weighted P-Frames: Y:0.0% UV:0.0%
[libx264 @ 0x56105a865c60] ref P L0: 82.3%  5.8%  9.9%  2.0%
[libx264 @ 0x56105a865c60] ref B L1: 85.7% 14.3%
[libx264 @ 0x56105a865c60] PSNR Mean Y:51.827 U:52.437 V:54.446 Avg:52.267 Global:52.242 kb/s:10.06
